<svg width="127" height="37" viewBox="0 0 127 37" fill="none" xmlns="http://www.w3.org/2000/svg">
<path d="M44.1953 17.007V4.11914H54.1238V6.37274H46.7541V16.7525H54.3408V19.0061H44.1953V17.007Z" fill="#191919"/>
<path d="M55.4531 19.0048V9.22207L57.6204 7.0957H63.9925V9.30771H57.967V19.0073H55.4531V19.0048Z" fill="#191919"/>
<path d="M65.0547 5.7377V3.82422H67.5686V5.7377H65.0547ZM65.0547 19.0097V7.09818H67.5686V19.0097H65.0547Z" fill="#191919"/>
<path d="M69.2734 5.18355L71.7873 4.11914V7.52279H76.9474V9.64915H71.7873V16.8798H76.9474V19.0061H71.4407L69.2734 16.8798V5.18355Z" fill="#191919"/>
<path d="M77.7891 16.9225V9.18047L79.9139 7.0957H88.4109V13.7317H80.303V16.8784H87.9769V19.0048H79.9139L77.7891 16.92V16.9225ZM80.303 12.1584L86.1339 11.9944V9.84358H80.303V12.1559V12.1584Z" fill="#191919"/>
<path d="M89.8438 19.0048V9.22207L92.011 7.0957H98.3831V9.30771H92.3577V19.0073H89.8438V19.0048Z" fill="#191919"/>
<path d="M99.3281 5.7377V3.82422H101.842V5.7377H99.3281ZM99.3281 19.0097V7.09818H101.842V19.0097H99.3281Z" fill="#191919"/>
<path d="M103.273 16.9225V9.18047L105.398 7.0957H111.987L114.112 9.18047V16.9225L111.987 19.0073H105.398L103.273 16.9225ZM105.787 16.9225H111.596V9.18047H105.787V16.9225Z" fill="#191919"/>
<path d="M115.539 19.0048V7.0957H124.383L126.55 9.22207V19.0048H124.036V9.26366H118.053V19.0048H115.539Z" fill="#191919"/>
<path d="M44.2188 36.1472V21.2578H46.7327V27.3824H53.7133V21.2578H56.2272V36.1472H53.7133V29.5969H46.7327V36.1472H44.2188Z" fill="#191919"/>
<path d="M57.6562 34.0621V26.3201L59.7811 24.2354H66.3702L68.495 26.3201V34.0621L66.3702 36.1469H59.7811L57.6562 34.0621ZM60.1702 34.0621H65.9786V26.3201H60.1702V34.0621Z" fill="#191919"/>
<path d="M69.9244 24.2354H85.1001L87.442 26.533V36.1469H84.948V26.3421H79.9177V36.1469H77.4462V26.3421H72.4158V36.1469H69.9219V24.2354H69.9244Z" fill="#191919"/>
<path d="M88.875 34.0621V26.3201L90.9999 24.2354H99.4968V30.8714H91.3889V34.0181H99.0628V36.1445H90.9999L88.875 34.0597V34.0621ZM91.3889 29.298L97.2198 29.0851V26.2785H91.3889V29.298Z" fill="#191919"/>
<path d="M100.799 36.1469V34.0621H109.037V30.9986H100.799V26.3201L102.924 24.2354H111.551V26.3201H103.313V29.2124H111.551V34.1258L109.491 36.1469H100.797H100.799Z" fill="#191919"/>
<path d="M113.328 36.1468V33.5947H115.757V36.1468H113.328Z" fill="#191919"/>
<path d="M36.3579 13.151C36.3205 18.2357 36.3005 21.0986 36.2656 26.1784L25.9107 36.2474C21.0749 36.2376 18.349 36.2351 13.5107 36.2278L10.7374 33.5142L3.08594 25.7868L10.7324 18.4584L11.2237 17.9861L18.5211 25.2901L25.6114 18.4584L18.3615 11.169L18.6807 10.8632L26.5915 3.31934L34.1657 10.9635L36.3579 13.1535V13.151Z" fill="#191919"/>
<path d="M14.5733 7.51951L7.95677 13.9818L0.554688 6.59213L7.21856 0.144531L14.5733 7.51951Z" fill="#DC7322"/>
</svg>
