<svg xmlns="http://www.w3.org/2000/svg" width="17" height="16" fill="none" viewBox="0 0 17 16"><path stroke="#000" stroke-linecap="round" stroke-linejoin="round" stroke-width=".944" d="M10.289 4.078a2.95 2.95 0 0 1 2.33 2.33m-2.33-4.69a5.31 5.31 0 0 1 4.69 4.685m-.59 4.707v1.77a1.18 1.18 0 0 1-1.287 1.18 11.7 11.7 0 0 1-5.09-1.811 11.5 11.5 0 0 1-3.54-3.54 11.7 11.7 0 0 1-1.811-5.114 1.18 1.18 0 0 1 1.174-1.286h1.77a1.18 1.18 0 0 1 1.18 1.014c.074.567.213 1.123.412 1.658a1.18 1.18 0 0 1-.265 1.245l-.75.749a9.44 9.44 0 0 0 3.54 3.54l.75-.75a1.18 1.18 0 0 1 1.244-.265c.535.2 1.091.338 1.658.413a1.18 1.18 0 0 1 1.014 1.197"/></svg>