<svg width="16" height="16" viewBox="0 0 16 16" fill="none" xmlns="http://www.w3.org/2000/svg">
<path d="M9.52288 4.10571C10.0991 4.21813 10.6286 4.49992 11.0437 4.91502C11.4588 5.33013 11.7406 5.85966 11.853 6.43584M9.52288 1.74609C10.72 1.87908 11.8362 2.41515 12.6885 3.26628C13.5407 4.11742 14.0781 5.23303 14.2126 6.42994M13.6227 11.1374V12.9071C13.6234 13.0714 13.5897 13.234 13.5239 13.3845C13.4581 13.5351 13.3616 13.6702 13.2405 13.7813C13.1194 13.8923 12.9765 13.9769 12.8209 14.0295C12.6653 14.0821 12.5004 14.1017 12.3367 14.0869C10.5215 13.8897 8.77783 13.2694 7.24585 12.2759C5.82054 11.3702 4.61212 10.1618 3.70642 8.73647C2.70947 7.19752 2.08905 5.44538 1.89541 3.62199C1.88067 3.45886 1.90006 3.29445 1.95234 3.13923C2.00462 2.984 2.08865 2.84136 2.19908 2.72039C2.3095 2.59942 2.44391 2.50277 2.59374 2.43659C2.74356 2.37041 2.90553 2.33615 3.06932 2.336H4.83904C5.12532 2.33318 5.40286 2.43456 5.61993 2.62124C5.837 2.80791 5.97878 3.06715 6.01885 3.35063C6.09354 3.91698 6.23207 4.47306 6.43178 5.00827C6.51115 5.21941 6.52833 5.44888 6.48128 5.66948C6.43423 5.89008 6.32493 6.09258 6.16632 6.25297L5.41715 7.00215C6.25691 8.479 7.47972 9.70181 8.95657 10.5416L9.70575 9.79239C9.86614 9.63379 10.0686 9.52449 10.2892 9.47744C10.5098 9.43039 10.7393 9.44757 10.9505 9.52694C11.4857 9.72665 12.0417 9.86518 12.6081 9.93987C12.8946 9.9803 13.1563 10.1246 13.3434 10.3454C13.5305 10.5662 13.6299 10.8481 13.6227 11.1374Z" stroke="white" stroke-width="0.943848" stroke-linecap="round" stroke-linejoin="round"/>
</svg>
